<svg height="511pt" viewBox="-113 0 511 511.99967" width="511pt" xmlns="http://www.w3.org/2000/svg"><path d="m285.476562 433.6875-22.222656-91.210938c-9.570312-39.273437-44.75-66.910156-85.167968-66.910156h-6.65625v-31.234375c-17.753907 6.941407-37.675782 7.082031-55.785157 0v31.234375h-6.652343c-40.421876 0-75.601563 27.636719-85.167969 66.910156-2.484375 10.1875-19.878907 81.574219-22.226563 91.210938-4.070312 16.710938 3.417969 34.082031 18.320313 42.675781 82.414062 47.515625 164.828125 47.515625 247.242187 0 14.902344-8.59375 22.390625-25.964843 18.316406-42.675781zm0 0" fill="#2c5771"/><path d="m285.476562 433.6875-22.222656-91.210938c-5.546875-22.757812-19.691406-41.609374-38.472656-53.4375 12.636719 20.085938 10.699219 30.164063 33.179688 117.132813 4.074218 16.710937-3.414063 34.082031-18.316407 42.675781-79.132812 45.625-158.265625 47.441406-237.394531 5.449219 2.832031 9.089844 8.992188 17.066406 17.667969 22.066406 82.414062 47.515625 164.828125 47.515625 247.238281 0 14.90625-8.59375 22.394531-25.964843 18.320312-42.675781zm0 0" fill="#24475c"/><path d="m171.429688 275.566406v-31.234375c-17.753907 6.941407-37.675782 7.082031-55.78125 0v31.234375l22.828124 16.136719c3.035157 2.144531 7.089844 2.144531 10.125 0zm0 0" fill="#fcd78b"/><path d="m85.910156 278.667969 31.414063 45.660156c1.460937 2.121094 4.589843 2.125 6.054687.011719l17.660156-25.457032c1.382813-1.992187.902344-4.730468-1.078124-6.128906l-24.316407-17.1875c-4.105469.199219-14.878906-.953125-29.734375 3.101563zm0 0" fill="#24475c"/><path d="m201.167969 278.667969-31.414063 45.660156c-1.460937 2.121094-4.589844 2.125-6.058594.011719l-17.660156-25.457032c-1.382812-1.992187-.898437-4.730468 1.082032-6.128906l24.3125-17.1875c4.109374.199219 14.878906-.953125 29.738281 3.101563zm0 0" fill="#24475c"/><path d="m141.421875 298.335938-18.722656 26.984374c13.894531 7.222657 27.785156 7.222657 41.679687 0l-18.722656-26.984374c-1.027344-1.480469-3.210938-1.480469-4.234375 0zm0 0" fill="#e0a812"/><path d="m153.960938 329.382812c-6.949219 1.808594-13.894532 1.808594-20.84375 0l-13.6875 110.964844c-.160157 1.3125.402343 2.609375 1.476562 3.390625l20.492188 14.886719c1.273437.929688 3.003906.929688 4.277343 0l20.496094-14.886719c1.070313-.78125 1.632813-2.078125 1.472656-3.390625zm0 0" fill="#ffbf14"/><path d="m153.960938 329.382812c-6.246094 1.625-12.488282 1.789063-18.730469.496094l10.691406 86.703125c.707031 5.726563-1.75 11.382813-6.417969 14.773438l-17.5625 13.136719 19.457032 14.136718c1.273437.925782 3.003906.925782 4.277343 0l20.496094-14.890625c1.070313-.777343 1.632813-2.078125 1.472656-3.390625zm0 0" fill="#e0a812"/><path d="m239.296875 380.867188h-50.039063c-3.640624 0-6.59375-2.953126-6.59375-6.59375v-10.566407c0-3.640625 2.953126-6.59375 6.59375-6.59375h50.039063c3.640625 0 6.59375 2.953125 6.59375 6.59375v10.566407c0 3.640624-2.953125 6.59375-6.59375 6.59375zm0 0" fill="#ccdfed"/><path d="m257.226562 39.539062c-4.332031-8.730468-9.753906-16.5-16.269531-23.300781-2.511719-2.625-6.351562-3.507812-9.738281-2.183593-12.09375 4.734374-23.957031 4.898437-35.757812-.417969-13.894532-6.261719-27.992188-10.730469-42.339844-12.996094-19.046875-3.007813-44.074219 5.140625-61.507813 12.996094-11.789062 5.3125-23.65625 5.15625-35.757812.417969-3.382813-1.324219-7.222657-.445313-9.734375 2.183593-6.515625 6.800781-11.9375 14.570313-16.269532 23.300781-1.964843 3.953126-.792968 8.746094 2.804688 11.300782 9.285156 6.585937 17.625 16.699218 25.472656 28.628906h170.816406c7.851563-11.929688 16.1875-22.042969 25.472657-28.628906 3.601562-2.554688 4.769531-7.347656 2.808593-11.300782zm0 0" fill="#2c5771"/><path d="m257.207031 39.496094c-3.230469-6.5-7.066406-12.46875-11.507812-17.902344.714843 3.414062-.601563 7.027344-3.558594 9.125-4.59375 3.261719-8.953125 7.382812-13.140625 12.15625-9.246094 10.554688-22.695312 16.476562-36.726562 16.476562h-120.535157c-14.875 0-29.082031-6.285156-39.007812-17.363281-.882813-.984375-1.773438-1.941406-2.671875-2.863281-2.363282 4.707031-.785156 9.3125 2.597656 11.714844 9.285156 6.585937 17.625 16.699218 25.472656 28.628906h170.816406c7.851563-11.933594 16.191407-22.042969 25.476563-28.632812 3.605469-2.558594 4.75-7.378907 2.785156-11.339844zm0 0" fill="#24475c"/><path d="m58.128906 79.46875h170.816406v23.347656h-170.816406zm0 0" fill="#e0a812"/><path d="m210.859375 125.160156c-44.882813 11.222656-89.761719 11.222656-134.640625 0l-9.332031-8.203125v55.980469c0 42.335938 34.316406 76.652344 76.652343 76.652344 38.902344 0 71.011719-28.984375 75.964844-66.53125l.6875-28.855469v-37.246094zm0 0" fill="#fcd78b"/><path d="m206.914062 126.117188c-43.527343 10.25-87.109374 9.945312-130.695312-.957032l-9.332031-8.203125v22.121094c39.003906 11.105469 78.007812 13.734375 117.011719 7.886719 9.921874-1.488282 18.78125 6.328125 18.542968 16.351562l-.0625 2.613282c-7.621094 57.730468-74.386718 85.730468-120.929687 51.96875 40.96875 56.476562 129.109375 32.953124 138.054687-34.84375l.6875-28.851563v-37.246094c-12.324218.207031-6.855468 7.648438-13.277344 9.160157zm0 0" fill="#e6b883"/><path d="m126.121094 57.46875c3.273437-.003906 4.773437-1.820312 9.6875-4.40625v6.734375c0 4.269531 3.460937 7.730469 7.730468 7.730469 4.269532 0 7.726563-3.460938 7.726563-7.730469v-6.734375l5.832031 3.367188c3.695313 2.136718 8.425782.867187 10.558594-2.828126 2.132812-3.695312.867188-8.425781-2.828125-10.558593l-5.832031-3.367188 5.832031-3.367187c3.695313-2.132813 4.960937-6.859375 2.828125-10.554688-2.132812-3.699218-6.863281-4.964844-10.558594-2.832031l-5.832031 3.367187v-6.730468c0-4.269532-3.457031-7.730469-7.726563-7.730469-4.269531 0-7.730468 3.460937-7.730468 7.730469v6.730468l-5.832032-3.367187c-3.699218-2.132813-8.421874-.867187-10.554687 2.828125-2.136719 3.699219-.867187 8.425781 2.828125 10.558594l5.832031 3.367187-5.832031 3.367188c-6.832031 3.945312-4.011719 14.425781 3.871094 14.425781zm0 0" fill="#ffbf14"/><path d="m58.128906 102.816406h170.816406l6.320313 4.886719c3.945313 3.050781 2.90625 9.285156-1.820313 10.863281-59.9375 20.015625-119.875 20.015625-179.8125 0-4.730468-1.578125-5.765624-7.8125-1.824218-10.863281zm0 0" fill="#24475c"/><path d="m115.648438 243.214844v15.828125c17.605468 6.878906 37.683593 7.074219 55.78125-.003907v-15.820312c-17.753907 6.941406-37.675782 7.078125-55.78125-.003906zm0 0" fill="#e6b883"/></svg>