<svg height="511pt" viewBox="-113 0 511 511.9999" width="511pt" xmlns="http://www.w3.org/2000/svg"><path d="m205.253906 32.546875c-10.09375-16.75-34.132812-32.546875-61.761718-32.546875-41.359376 0-74.886719 33.527344-74.886719 74.886719v20.394531h149.769531c-.960938-9.164062 4.3125-37.351562-13.121094-62.734375zm0 0" fill="#423e38"/><path d="m205.253906 32.546875c-12.6875-21.050781-43.710937-37.238281-75.660156-31.238281 18.28125 3.460937 38.175781 15.308594 47.777344 31.238281 17.578125 25.59375 12.195312 53.917969 13.121094 62.730469h27.882812c-.960938-9.160156 4.3125-37.347656-13.121094-62.730469zm0 0" fill="#302e29"/><path d="m285.382812 433.679688-22.214843-91.179688c-9.5625-39.261719-44.734375-66.890625-85.140625-66.890625h-6.652344v-31.222656c-17.75 6.941406-37.664062 7.078125-55.765625 0v31.222656h-6.652344c-40.410156 0-75.578125 27.628906-85.144531 66.890625l-22.214844 91.179688c-4.070312 16.707031 3.414063 34.070312 18.3125 42.660156 82.386719 47.503906 164.777344 47.503906 247.164063 0 14.894531-8.589844 22.382812-25.953125 18.308593-42.660156zm0 0" fill="#f3e8d6"/><path d="m285.382812 433.679688-22.214843-91.179688c-8.96875-36.820312-40.460938-63.410156-77.671875-66.570312 19.929687 11.707031 35.019531 31.140624 40.789062 54.816406l22.214844 91.179687c4.070312 16.707031-3.414062 34.074219-18.3125 42.664063-57.800781 33.324218-115.597656 43.265625-173.398438 29.832031 70.09375 28.355469 140.1875 22.332031 210.285157-18.082031 14.894531-8.589844 22.382812-25.953125 18.308593-42.660156zm0 0" fill="#c9c0b1"/><path d="m115.605469 232.632812h55.769531v60.4375h-55.769531zm0 0" fill="#fcd78b"/><path d="m115.605469 257.597656c17.925781 7.007813 37.84375 7.007813 55.769531 0v-24.964844h-55.769531zm0 0" fill="#e6b883"/><path d="m66.863281 125.253906v47.757813c0 42.320312 34.308594 76.628906 76.628907 76.628906 42.320312 0 76.628906-34.308594 76.628906-76.628906v-47.757813zm0 0" fill="#fcd78b"/><path d="m192.238281 125.253906v47.757813c0 37.558593-27.027343 68.78125-62.6875 75.339843 47.390625 8.71875 90.570313-27.691406 90.570313-75.339843v-47.757813zm0 0" fill="#e6b883"/><path d="m235.929688 125.253906h-184.878907c-7.546875 0-13.664062-6.121094-13.664062-13.667968v-7.09375c0-7.550782 6.117187-13.667969 13.664062-13.667969h184.878907c7.546874 0 13.667968 6.117187 13.667968 13.667969v7.09375c0 7.546874-6.121094 13.667968-13.667968 13.667968zm0 0" fill="#423e38"/><path d="m235.519531 90.824219h-31.222656c7.777344 0 14.078125 6.304687 14.078125 14.078125v6.273437c0 7.773438-6.300781 14.078125-14.078125 14.078125h31.222656c7.773438 0 14.078125-6.304687 14.078125-14.078125v-6.273437c0-7.773438-6.304687-14.078125-14.078125-14.078125zm0 0" fill="#302e29"/><path d="m174.53125 181.847656c-20.695312-7.359375-41.386719-7.359375-62.078125 0-11.152344 3.964844-23.359375-3.847656-24.042969-15.660156-.648437-11.195312 8.707032-21.148438 20.96875-19.625 22.742188 2.828125 45.484375 2.828125 68.226563 0 12.160156-1.511719 21.621093 8.335938 20.96875 19.625-.6875 11.816406-12.894531 19.625-24.042969 15.660156zm0 0" fill="#544f47"/><path d="m5.558594 417.421875c91.957031 14.140625 183.910156 14.140625 275.863281 0l-11.515625-47.269531c-84.277344 10.699218-168.554688 10.699218-252.828125 0zm0 0" fill="#423e38"/><path d="m269.90625 370.152344c-11.042969 1.402344-22.089844 2.613281-33.132812 3.648437l11.710937 48.078125c10.980469-1.285156 21.960937-2.769531 32.9375-4.457031-3.265625-13.414063-7.996094-32.828125-11.515625-47.269531zm0 0" fill="#302e29"/><path d="m7.300781 464.691406c3.207031 4.671875 7.464844 8.683594 12.609375 11.648438 82.3125 47.457031 164.714844 47.535156 247.164063 0 5.140625-2.964844 9.402343-6.980469 12.605469-11.648438-90.792969 16.128906-181.585938 16.128906-272.378907 0zm0 0" fill="#423e38"/><path d="m279.679688 464.691406c-22.085938 3.921875-44.167969 6.882813-66.253907 8.898438-52.210937 26.019531-104.421875 32.964844-156.632812 20.832031 23.449219 6.734375 95.421875 41.726563 197.636719-11.171875 10.296874-5.328125 18.878906-9.277344 25.25-18.558594zm0 0" fill="#302e29"/><path d="m178.027344 275.609375h-6.652344c-19.277344 9.546875-37.867188 9.546875-55.769531 0h-6.648438c-33.273437 0-62.976562 18.742187-77.777343 47.273437 76.566406 13.207032 151.621093 12.589844 224.621093 0-14.800781-28.53125-44.503906-47.273437-77.773437-47.273437zm0 0" fill="#423e38"/><path d="m185.519531 275.941406c18.964844 11.152344 33.527344 29.3125 39.855469 51.460938 10.140625-1.273438 20.285156-2.773438 30.425781-4.523438-13.566406-26.152344-39.847656-44.339844-70.28125-46.9375zm0 0" fill="#302e29"/><g fill="#2b2a25"><path d="m176.648438 172.550781h.902343c4.265625 0 7.726563-3.457031 7.726563-7.726562 0-4.265625-3.460938-7.726563-7.726563-7.726563h-.902343c-4.265626 0-7.726563 3.460938-7.726563 7.726563 0 4.269531 3.460937 7.726562 7.726563 7.726562zm0 0"/><path d="m109.558594 157.097656h-.898438c-4.269531 0-7.726562 3.460938-7.726562 7.726563s3.457031 7.726562 7.726562 7.726562h.898438c4.269531 0 7.726562-3.460937 7.726562-7.726562s-3.457031-7.726563-7.726562-7.726563zm0 0"/></g></svg>