<svg height="512pt" viewBox="-103 0 512 512.0001" width="512pt" xmlns="http://www.w3.org/2000/svg"><path d="m292.058594 435.015625-21.84375-89.660156c-6.355469-26.078125-24.195313-46.9375-47.351563-57.730469l-21.488281 34.4375 18.488281 6.882812c6.441407 2.394532 7.332031 11.136719 1.507813 14.78125l-68.839844 43.105469-68.839844-43.105469c-5.824218-3.644531-4.933594-12.386718 1.503906-14.78125l18.492188-6.882812-21.488281-34.4375c-46.324219 21.589844-48.425781 67.183594-51.121094 73.195312l-18.074219 74.195313c-3.972656 16.300781 3.160156 33.371094 17.6875 41.765625 81.226563 46.957031 162.453125 46.957031 243.683594 0 14.523438-8.394531 21.65625-25.464844 17.683594-41.765625zm0 0" fill="#9e5015"/><path d="m292.058594 435.015625-21.84375-89.660156c-6.355469-26.078125-24.195313-46.9375-47.351563-57.730469l-14.832031 23.765625c4.261719 5.234375 7.925781 10.996094 10.890625 17.203125-.5 2.460938.597656 4.898438 2.628906 6.382812 1.347657.984376 1.359375 2.421876 2.46875 7.09375.867188 3.046876-.25-1.207031 22.710938 92.945313 4.003906 16.429687-3.355469 33.503906-18.003907 41.953125-32.953124 18.996094-65.90625 30.269531-98.859374 33.8125 48.148437 5.175781 96.296874-6.144531 144.445312-33.964844 14.546875-8.40625 21.726562-25.476562 17.746094-41.800781zm0 0" fill="#854312"/><path d="m241.890625 224.449219-23.980469-8.351563c-28.941406 50.425782-101.695312 50.648438-130.765625-.007812l-23.980469 8.359375c-8.578124 2.988281-12.164062 13.167969-7.355468 20.878906l41.351562 66.273437c3.371094 5.402344.9375 12.539063-5.027344 14.761719l-8.507812 3.167969c-5.796875 2.15625-6.597656 10.023438-1.359375 13.308594l70.265625 43.992187 70.261719-43.996093c5.242187-3.28125 4.441406-11.148438-1.355469-13.308594l-8.507812-3.164063c-5.96875-2.222656-8.398438-9.359375-5.027344-14.761719l41.351562-66.273437c4.808594-7.707031 1.21875-17.890625-7.363281-20.878906zm0 0" fill="#733a10"/><path d="m125.113281 279.582031v-30.742187c17.625 6.890625 37.210938 6.890625 54.835938 0v30.742187c-16.195313 11.90625-38.226563 12-54.523438.226563zm0 0" fill="#fcd78b"/><path d="m234.929688 76.824219h-164.796876c-42.1875 6.210937-70.132812 17.050781-70.132812 29.386719 0 19.28125 68.289062 34.914062 152.53125 34.914062s152.53125-15.632812 152.53125-34.914062c0-12.335938-27.945312-23.175782-70.132812-29.386719zm0 0" fill="#733a10"/><path d="m77.179688 136.574219v42.078125c0 41.617187 33.734374 75.355468 75.351562 75.355468s75.351562-33.738281 75.351562-75.355468v-42.078125l-2.328124.296875c-46.160157 5.773437-102.554688 5.671875-148.375-.296875zm0 0" fill="#fcd78b"/><path d="m125.113281 248.839844v7.894531c8.5 3.324219 17.742188 5.167969 27.417969 5.167969 9.679688 0 18.917969-1.84375 27.417969-5.167969v-7.894531c-17.625 6.890625-37.210938 6.890625-54.835938 0zm0 0" fill="#e6b883"/><path d="m225.554688 136.871094c-4.582032.570312-9.304688 1.09375-14.15625 1.558594v23.742187c0 61.648437-70.484376 96.878906-119.753907 60.882813 13.707031 18.761718 35.871094 30.949218 60.886719 30.949218 41.617188 0 75.351562-33.734375 75.351562-75.351562v-42.082032zm0 0" fill="#e6b883"/><path d="m179.949219 279.582031c-16.195313 11.90625-38.226563 12-54.523438.226563l-.3125-.226563c-8.363281 29.757813 6.765625 67.546875 27.417969 107.25 20.652344-39.703125 35.78125-77.492187 27.417969-107.25zm0 0" fill="#ccdfed"/><path d="m205.277344 10.671875c-13.703125-16.261719-40.117188-13.605469-50.097656 5.773437-1.109376 2.152344-4.1875 2.152344-5.296876 0-9.996093-19.402343-36.417968-22.007812-50.097656-5.773437-20.964844 24.886719-29.988281 56.800781-33.375 92.027344 54.507813 14.539062 111.921875 14.539062 172.242188 0-3.210938-33.378907-11.925782-66.5625-33.375-92.027344zm0 0" fill="#9e5015"/><path d="m175.511719 17.539062c21.300781 25.285157 30.03125 58.167969 33.296875 91.207032 9.867187-1.613282 19.816406-3.628906 29.84375-6.046875-3.210938-33.378907-11.925782-66.5625-33.375-92.027344-11.050782-13.113281-31.175782-14.386719-43.890625-2.453125 5.449219 1.675781 10.375 4.871094 14.125 9.320312zm0 0" fill="#854312"/><path d="m70.132812 76.824219v-.003907c-1.664062 8.378907-2.871093 17.023438-3.722656 25.878907 54.507813 14.539062 111.921875 14.539062 172.242188 0-.851563-8.851563-2.058594-17.5-3.722656-25.875-54.933594 9.238281-109.863282 9.238281-164.796876 0zm0 0" fill="#ffb30f"/><path d="m234.925781 76.824219c-10.105469 1.699219-20.210937 3.085937-30.320312 4.160156 1.902343 8.960937 3.261719 18.238281 4.203125 27.761719 10.734375-2.050782 16.214844-2.757813 29.84375-6.046875-1.4375-14.972657-3.667969-25.539063-3.726563-25.875zm0 0" fill="#eba50e"/><path d="m160.257812 511.855469v-129.863281l-7.726562 4.839843-7.726562-4.839843v129.863281c5.148437.191406 10.300781.191406 15.453124 0zm0 0" fill="#733a10"/></svg>